<mxfile host="app.diagrams.net" agent="Mozilla/5.0 (Macintosh; Intel Mac OS X 10_15_7) AppleWebKit/537.36 (KHTML, like Gecko) Chrome/133.0.0.0 Safari/537.36" version="26.1.0">
  <diagram name="Page-1" id="rTQAHnz_gqVbVHMEzQIj">
    <mxGraphModel grid="1" page="0" gridSize="10" guides="1" tooltips="1" connect="1" arrows="1" fold="1" pageScale="1" pageWidth="827" pageHeight="1169" math="0" shadow="0">
      <root>
        <mxCell id="0" />
        <mxCell id="1" parent="0" />
        <mxCell id="se1uJASSVegG4uE1Ddn8-4" style="edgeStyle=orthogonalEdgeStyle;rounded=0;orthogonalLoop=1;jettySize=auto;html=1;entryX=0;entryY=0.5;entryDx=0;entryDy=0;" edge="1" parent="1" source="se1uJASSVegG4uE1Ddn8-1" target="se1uJASSVegG4uE1Ddn8-3">
          <mxGeometry relative="1" as="geometry" />
        </mxCell>
        <mxCell id="se1uJASSVegG4uE1Ddn8-1" value="Web/Mobile User" style="rounded=1;whiteSpace=wrap;html=1;" vertex="1" parent="1">
          <mxGeometry x="60" y="480" width="120" height="60" as="geometry" />
        </mxCell>
        <mxCell id="se1uJASSVegG4uE1Ddn8-15" style="edgeStyle=orthogonalEdgeStyle;rounded=0;orthogonalLoop=1;jettySize=auto;html=1;entryX=0;entryY=0.5;entryDx=0;entryDy=0;" edge="1" parent="1" source="se1uJASSVegG4uE1Ddn8-3" target="se1uJASSVegG4uE1Ddn8-7">
          <mxGeometry relative="1" as="geometry" />
        </mxCell>
        <mxCell id="se1uJASSVegG4uE1Ddn8-18" style="edgeStyle=orthogonalEdgeStyle;rounded=0;orthogonalLoop=1;jettySize=auto;html=1;" edge="1" parent="1" source="se1uJASSVegG4uE1Ddn8-3" target="se1uJASSVegG4uE1Ddn8-8">
          <mxGeometry relative="1" as="geometry" />
        </mxCell>
        <mxCell id="se1uJASSVegG4uE1Ddn8-3" value="API gateway" style="rounded=1;whiteSpace=wrap;html=1;" vertex="1" parent="1">
          <mxGeometry x="270" y="480" width="120" height="60" as="geometry" />
        </mxCell>
        <mxCell id="se1uJASSVegG4uE1Ddn8-5" value="Cognito,&lt;br&gt;AUthentication" style="rounded=1;whiteSpace=wrap;html=1;" vertex="1" parent="1">
          <mxGeometry x="270" y="320" width="120" height="60" as="geometry" />
        </mxCell>
        <mxCell id="se1uJASSVegG4uE1Ddn8-6" value="" style="endArrow=classic;startArrow=classic;html=1;rounded=0;entryX=0.5;entryY=1;entryDx=0;entryDy=0;exitX=0.5;exitY=0;exitDx=0;exitDy=0;" edge="1" parent="1" source="se1uJASSVegG4uE1Ddn8-3" target="se1uJASSVegG4uE1Ddn8-5">
          <mxGeometry width="50" height="50" relative="1" as="geometry">
            <mxPoint x="300" y="490" as="sourcePoint" />
            <mxPoint x="350" y="440" as="targetPoint" />
          </mxGeometry>
        </mxCell>
        <mxCell id="se1uJASSVegG4uE1Ddn8-24" style="edgeStyle=orthogonalEdgeStyle;rounded=0;orthogonalLoop=1;jettySize=auto;html=1;" edge="1" parent="1" source="se1uJASSVegG4uE1Ddn8-7" target="se1uJASSVegG4uE1Ddn8-22">
          <mxGeometry relative="1" as="geometry" />
        </mxCell>
        <mxCell id="se1uJASSVegG4uE1Ddn8-27" style="edgeStyle=orthogonalEdgeStyle;rounded=0;orthogonalLoop=1;jettySize=auto;html=1;entryX=0;entryY=0.5;entryDx=0;entryDy=0;" edge="1" parent="1" source="se1uJASSVegG4uE1Ddn8-7" target="se1uJASSVegG4uE1Ddn8-21">
          <mxGeometry relative="1" as="geometry" />
        </mxCell>
        <mxCell id="se1uJASSVegG4uE1Ddn8-28" style="edgeStyle=orthogonalEdgeStyle;rounded=0;orthogonalLoop=1;jettySize=auto;html=1;entryX=0;entryY=0.5;entryDx=0;entryDy=0;" edge="1" parent="1" source="se1uJASSVegG4uE1Ddn8-7" target="se1uJASSVegG4uE1Ddn8-23">
          <mxGeometry relative="1" as="geometry" />
        </mxCell>
        <mxCell id="se1uJASSVegG4uE1Ddn8-7" value="Lambda" style="rounded=1;whiteSpace=wrap;html=1;" vertex="1" parent="1">
          <mxGeometry x="720" y="430" width="120" height="60" as="geometry" />
        </mxCell>
        <mxCell id="se1uJASSVegG4uE1Ddn8-25" style="edgeStyle=orthogonalEdgeStyle;rounded=0;orthogonalLoop=1;jettySize=auto;html=1;entryX=0;entryY=0.5;entryDx=0;entryDy=0;" edge="1" parent="1" source="se1uJASSVegG4uE1Ddn8-8" target="se1uJASSVegG4uE1Ddn8-22">
          <mxGeometry relative="1" as="geometry" />
        </mxCell>
        <mxCell id="se1uJASSVegG4uE1Ddn8-8" value="Fargate&lt;br&gt;(OnHold, VPC)" style="rounded=1;whiteSpace=wrap;html=1;" vertex="1" parent="1">
          <mxGeometry x="720" y="525" width="120" height="60" as="geometry" />
        </mxCell>
        <mxCell id="se1uJASSVegG4uE1Ddn8-21" value="RDS &lt;br&gt;(VPC)" style="rounded=1;whiteSpace=wrap;html=1;" vertex="1" parent="1">
          <mxGeometry x="1260" y="325" width="120" height="60" as="geometry" />
        </mxCell>
        <mxCell id="se1uJASSVegG4uE1Ddn8-22" value="DynamoDb" style="rounded=1;whiteSpace=wrap;html=1;" vertex="1" parent="1">
          <mxGeometry x="1260" y="475" width="120" height="60" as="geometry" />
        </mxCell>
        <mxCell id="se1uJASSVegG4uE1Ddn8-23" value="S3" style="rounded=1;whiteSpace=wrap;html=1;" vertex="1" parent="1">
          <mxGeometry x="1260" y="660" width="120" height="60" as="geometry" />
        </mxCell>
        <mxCell id="se1uJASSVegG4uE1Ddn8-48" style="edgeStyle=orthogonalEdgeStyle;rounded=0;orthogonalLoop=1;jettySize=auto;html=1;" edge="1" parent="1" source="se1uJASSVegG4uE1Ddn8-31">
          <mxGeometry relative="1" as="geometry">
            <mxPoint x="780" y="430" as="targetPoint" />
          </mxGeometry>
        </mxCell>
        <mxCell id="se1uJASSVegG4uE1Ddn8-31" value="SQS" style="rounded=1;whiteSpace=wrap;html=1;" vertex="1" parent="1">
          <mxGeometry x="600" y="325" width="120" height="60" as="geometry" />
        </mxCell>
        <mxCell id="se1uJASSVegG4uE1Ddn8-47" style="edgeStyle=orthogonalEdgeStyle;rounded=0;orthogonalLoop=1;jettySize=auto;html=1;" edge="1" parent="1" source="se1uJASSVegG4uE1Ddn8-32">
          <mxGeometry relative="1" as="geometry">
            <mxPoint x="780" y="430" as="targetPoint" />
          </mxGeometry>
        </mxCell>
        <mxCell id="se1uJASSVegG4uE1Ddn8-32" value="SNS" style="rounded=1;whiteSpace=wrap;html=1;" vertex="1" parent="1">
          <mxGeometry x="840" y="325" width="120" height="60" as="geometry" />
        </mxCell>
        <mxCell id="se1uJASSVegG4uE1Ddn8-38" style="edgeStyle=orthogonalEdgeStyle;rounded=0;orthogonalLoop=1;jettySize=auto;html=1;" edge="1" parent="1" source="se1uJASSVegG4uE1Ddn8-33">
          <mxGeometry relative="1" as="geometry">
            <mxPoint x="780" y="430" as="targetPoint" />
          </mxGeometry>
        </mxCell>
        <mxCell id="se1uJASSVegG4uE1Ddn8-33" value="EventBridge Scheduler" style="rounded=1;whiteSpace=wrap;html=1;" vertex="1" parent="1">
          <mxGeometry x="600" y="220" width="120" height="60" as="geometry" />
        </mxCell>
        <mxCell id="se1uJASSVegG4uE1Ddn8-39" value="" style="endArrow=none;dashed=1;html=1;dashPattern=1 3;strokeWidth=2;rounded=0;" edge="1" parent="1">
          <mxGeometry width="50" height="50" relative="1" as="geometry">
            <mxPoint x="470" y="820" as="sourcePoint" />
            <mxPoint x="470" y="180" as="targetPoint" />
          </mxGeometry>
        </mxCell>
        <mxCell id="se1uJASSVegG4uE1Ddn8-41" value="" style="endArrow=none;dashed=1;html=1;dashPattern=1 3;strokeWidth=2;rounded=1;curved=0;" edge="1" parent="1">
          <mxGeometry width="50" height="50" relative="1" as="geometry">
            <mxPoint x="1150" y="820" as="sourcePoint" />
            <mxPoint x="1150" y="180" as="targetPoint" />
          </mxGeometry>
        </mxCell>
        <mxCell id="se1uJASSVegG4uE1Ddn8-43" value="&lt;font style=&quot;font-size: 24px;&quot;&gt;Storage&lt;/font&gt;" style="text;html=1;align=center;verticalAlign=middle;whiteSpace=wrap;rounded=0;" vertex="1" parent="1">
          <mxGeometry x="1150" y="190" width="120" height="30" as="geometry" />
        </mxCell>
        <mxCell id="TS7D_C67MzXeT80zY4cf-1" value="&lt;font style=&quot;font-size: 24px;&quot;&gt;Compute&lt;/font&gt;" style="text;html=1;align=center;verticalAlign=middle;whiteSpace=wrap;rounded=0;" vertex="1" parent="1">
          <mxGeometry x="470" y="190" width="120" height="30" as="geometry" />
        </mxCell>
      </root>
    </mxGraphModel>
  </diagram>
</mxfile>
